<svg width="160" height="40" viewBox="0 0 160 40" fill="none" xmlns="http://www.w3.org/2000/svg">
<path d="M34.1422 5.85781C30.3647 2.08031 25.3422 0 20 0C14.6578 0 9.63531 2.08031 5.85781 5.85781C2.08031 9.63531 0 14.6578 0 20C0 25.3422 2.08039 30.3646 5.85781 34.1422C9.63523 37.9198 14.6578 40 20 40C25.3422 40 30.3647 37.9197 34.1422 34.1422C37.9197 30.3647 40 25.3422 40 20C40 14.6578 37.9196 9.63539 34.1422 5.85781Z" fill="#33CC95"/>
<g clip-path="url(#clip0_35212_417)">
<path d="M20.5714 8V33.1429" stroke="white" stroke-width="2" stroke-linecap="round" stroke-linejoin="round"/>
<path d="M26.2857 12.5714H17.7143C16.6534 12.5714 15.636 12.9929 14.8859 13.743C14.1357 14.4931 13.7143 15.5106 13.7143 16.5714C13.7143 17.6323 14.1357 18.6497 14.8859 19.3999C15.636 20.15 16.6534 20.5714 17.7143 20.5714H23.4286C24.4894 20.5714 25.5069 20.9929 26.257 21.743C27.0072 22.4932 27.4286 23.5106 27.4286 24.5714C27.4286 25.6323 27.0072 26.6497 26.257 27.3999C25.5069 28.15 24.4894 28.5714 23.4286 28.5714H13.7143" stroke="white" stroke-width="2" stroke-linecap="round" stroke-linejoin="round"/>
</g>
<path d="M52.2194 12.12C51.6114 12.12 51.1074 11.936 50.7074 11.568C50.3234 11.184 50.1314 10.712 50.1314 10.152C50.1314 9.592 50.3234 9.128 50.7074 8.76C51.1074 8.376 51.6114 8.184 52.2194 8.184C52.8114 8.184 53.2994 8.376 53.6834 8.76C54.0674 9.128 54.2594 9.592 54.2594 10.152C54.2594 10.712 54.0674 11.184 53.6834 11.568C53.2994 11.936 52.8114 12.12 52.2194 12.12ZM53.8754 29.184C53.8754 30.656 53.5074 31.712 52.7714 32.352C52.0514 33.008 51.0114 33.336 49.6514 33.336H48.1634V30.48H49.1234C49.6354 30.48 49.9954 30.376 50.2034 30.168C50.4114 29.976 50.5154 29.656 50.5154 29.208V13.704H53.8754V29.184ZM62.2831 27.216C61.1951 27.216 60.2191 27.024 59.3551 26.64C58.4911 26.24 57.8031 25.704 57.2911 25.032C56.7951 24.36 56.5231 23.616 56.4751 22.8H59.8591C59.9231 23.312 60.1711 23.736 60.6031 24.072C61.0511 24.408 61.6031 24.576 62.2591 24.576C62.8991 24.576 63.3951 24.448 63.7471 24.192C64.1151 23.936 64.2991 23.608 64.2991 23.208C64.2991 22.776 64.0751 22.456 63.6271 22.248C63.1951 22.024 62.4991 21.784 61.5391 21.528C60.5471 21.288 59.7311 21.04 59.0911 20.784C58.4671 20.528 57.9231 20.136 57.4591 19.608C57.0111 19.08 56.7871 18.368 56.7871 17.472C56.7871 16.736 56.9951 16.064 57.4111 15.456C57.8431 14.848 58.4511 14.368 59.2351 14.016C60.0351 13.664 60.9711 13.488 62.0431 13.488C63.6271 13.488 64.8911 13.888 65.8351 14.688C66.7791 15.472 67.2991 16.536 67.3951 17.88H64.1791C64.1311 17.352 63.9071 16.936 63.5071 16.632C63.1231 16.312 62.6031 16.152 61.9471 16.152C61.3391 16.152 60.8671 16.264 60.5311 16.488C60.2111 16.712 60.0511 17.024 60.0511 17.424C60.0511 17.872 60.2751 18.216 60.7231 18.456C61.1711 18.68 61.8671 18.912 62.8111 19.152C63.7711 19.392 64.5631 19.64 65.1871 19.896C65.8111 20.152 66.3471 20.552 66.7951 21.096C67.2591 21.624 67.4991 22.328 67.5151 23.208C67.5151 23.976 67.2991 24.664 66.8671 25.272C66.4511 25.88 65.8431 26.36 65.0431 26.712C64.2591 27.048 63.3391 27.216 62.2831 27.216ZM92.5039 13.512C94.1359 13.512 95.4479 14.016 96.4399 15.024C97.4479 16.016 97.9519 17.408 97.9519 19.2V27H94.5919V19.656C94.5919 18.616 94.3279 17.824 93.7999 17.28C93.2719 16.72 92.5519 16.44 91.6399 16.44C90.7279 16.44 89.9999 16.72 89.4559 17.28C88.9279 17.824 88.6639 18.616 88.6639 19.656V27H85.3039V19.656C85.3039 18.616 85.0399 17.824 84.5119 17.28C83.9839 16.72 83.2639 16.44 82.3519 16.44C81.4239 16.44 80.6879 16.72 80.1439 17.28C79.6159 17.824 79.3519 18.616 79.3519 19.656V27H75.9919V13.704H79.3519V15.312C79.7839 14.752 80.3359 14.312 81.0079 13.992C81.6959 13.672 82.4479 13.512 83.2639 13.512C84.3039 13.512 85.2319 13.736 86.0479 14.184C86.8639 14.616 87.4959 15.24 87.9439 16.056C88.3759 15.288 88.9999 14.672 89.8159 14.208C90.6479 13.744 91.5439 13.512 92.5039 13.512ZM107.044 27.216C105.764 27.216 104.612 26.936 103.588 26.376C102.564 25.8 101.756 24.992 101.164 23.952C100.588 22.912 100.3 21.712 100.3 20.352C100.3 18.992 100.596 17.792 101.188 16.752C101.796 15.712 102.62 14.912 103.66 14.352C104.7 13.776 105.86 13.488 107.14 13.488C108.42 13.488 109.58 13.776 110.62 14.352C111.66 14.912 112.476 15.712 113.068 16.752C113.676 17.792 113.98 18.992 113.98 20.352C113.98 21.712 113.668 22.912 113.044 23.952C112.436 24.992 111.604 25.8 110.548 26.376C109.508 26.936 108.34 27.216 107.044 27.216ZM107.044 24.288C107.652 24.288 108.22 24.144 108.748 23.856C109.292 23.552 109.724 23.104 110.044 22.512C110.364 21.92 110.524 21.2 110.524 20.352C110.524 19.088 110.188 18.12 109.516 17.448C108.86 16.76 108.052 16.416 107.092 16.416C106.132 16.416 105.324 16.76 104.668 17.448C104.028 18.12 103.708 19.088 103.708 20.352C103.708 21.616 104.02 22.592 104.644 23.28C105.284 23.952 106.084 24.288 107.044 24.288ZM123.813 13.512C125.397 13.512 126.677 14.016 127.653 15.024C128.629 16.016 129.117 17.408 129.117 19.2V27H125.757V19.656C125.757 18.6 125.493 17.792 124.965 17.232C124.437 16.656 123.717 16.368 122.805 16.368C121.877 16.368 121.141 16.656 120.597 17.232C120.069 17.792 119.805 18.6 119.805 19.656V27H116.445V13.704H119.805V15.36C120.253 14.784 120.821 14.336 121.509 14.016C122.213 13.68 122.981 13.512 123.813 13.512ZM144.672 20.064C144.672 20.544 144.64 20.976 144.576 21.36H134.856C134.936 22.32 135.272 23.072 135.864 23.616C136.456 24.16 137.184 24.432 138.048 24.432C139.296 24.432 140.184 23.896 140.712 22.824H144.336C143.952 24.104 143.216 25.16 142.128 25.992C141.04 26.808 139.704 27.216 138.12 27.216C136.84 27.216 135.688 26.936 134.664 26.376C133.656 25.8 132.864 24.992 132.288 23.952C131.728 22.912 131.448 21.712 131.448 20.352C131.448 18.976 131.728 17.768 132.288 16.728C132.848 15.688 133.632 14.888 134.64 14.328C135.648 13.768 136.808 13.488 138.12 13.488C139.384 13.488 140.512 13.76 141.504 14.304C142.512 14.848 143.288 15.624 143.832 16.632C144.392 17.624 144.672 18.768 144.672 20.064ZM141.192 19.104C141.176 18.24 140.864 17.552 140.256 17.04C139.648 16.512 138.904 16.248 138.024 16.248C137.192 16.248 136.488 16.504 135.912 17.016C135.352 17.512 135.008 18.208 134.88 19.104H141.192ZM159.845 13.704L151.613 33.288H148.037L150.917 26.664L145.589 13.704H149.357L152.789 22.992L156.269 13.704H159.845Z" fill="white"/>
<defs>
<clipPath id="clip0_35212_417">
<rect width="27.4286" height="27.4286" fill="white" transform="translate(6.85715 6.85714)"/>
</clipPath>
</defs>
</svg>
